<?xml version="1.0" encoding="utf-8"?>
<!-- Generator: Adobe Illustrator 25.2.0, SVG Export Plug-In . SVG Version: 6.00 Build 0)  -->
<svg version="1.1" xmlns="http://www.w3.org/2000/svg" xmlns:xlink="http://www.w3.org/1999/xlink" x="0px" y="0px"
	 viewBox="0 0 655 375" style="enable-background:new 0 0 655 375;" xml:space="preserve">
<style type="text/css">
	.st0{fill:none;stroke:#FFFFFF;stroke-width:15;stroke-miterlimit:10;}
	.st1{display:none;fill:#FFFFFF;}
	.st2{font-family:'Calibri-Bold';}
	.st3{font-size:200px;}
	.st4{fill:#FFFFFF;}
	.st5{clip-path:url(#SVGID_2_);}
	.st6{fill:none;stroke:#FFFFFF;stroke-width:10;stroke-miterlimit:10;}
</style>
<g id="Background_and_Text">
	<path class="st0" d="M607.59,367.5H47.41c-22.04,0-39.91-17.87-39.91-39.91V47.41C7.5,25.37,25.37,7.5,47.41,7.5h560.19
		c22.04,0,39.91,17.87,39.91,39.91v280.19C647.5,349.63,629.63,367.5,607.59,367.5z"/>
	<text transform="matrix(1 0 0 1 223.827 291.318)" class="st1 st2 st3">NAS</text>
	<path id="NAS_Outlined" class="st4" d="M341.79,282.33c0,1.5-0.26,2.83-0.78,4s-1.22,2.15-2.1,2.93s-1.92,1.35-3.12,1.71
		s-2.43,0.54-3.66,0.54h-10.94c-2.28,0-4.25-0.23-5.91-0.68c-1.66-0.45-3.19-1.28-4.59-2.49c-1.4-1.2-2.75-2.83-4.05-4.88
		s-2.77-4.7-4.39-7.96l-31.44-59.08c-1.82-3.52-3.68-7.31-5.57-11.38c-1.89-4.07-3.58-8.02-5.08-11.87h-0.2
		c0.26,4.69,0.45,9.36,0.59,14.01c0.13,4.66,0.2,9.46,0.2,14.4v66.11c0,0.65-0.18,1.24-0.54,1.76c-0.36,0.52-0.98,0.96-1.86,1.32
		c-0.88,0.36-2.07,0.63-3.56,0.83c-1.5,0.2-3.42,0.29-5.76,0.29c-2.28,0-4.17-0.1-5.66-0.29c-1.5-0.2-2.67-0.47-3.52-0.83
		c-0.85-0.36-1.43-0.8-1.76-1.32c-0.33-0.52-0.49-1.11-0.49-1.76V174.13c0-3.06,0.89-5.35,2.69-6.88c1.79-1.53,3.99-2.29,6.59-2.29
		h13.77c2.47,0,4.56,0.21,6.25,0.63c1.69,0.42,3.21,1.12,4.54,2.1c1.33,0.98,2.59,2.33,3.76,4.05c1.17,1.73,2.38,3.86,3.61,6.4
		l24.61,46.19c1.43,2.8,2.85,5.55,4.25,8.25c1.4,2.7,2.75,5.4,4.05,8.11c1.3,2.7,2.57,5.36,3.81,7.96c1.24,2.6,2.44,5.21,3.61,7.81
		h0.1c-0.2-4.56-0.34-9.31-0.44-14.26c-0.1-4.95-0.15-9.67-0.15-14.16v-59.28c0-0.65,0.2-1.24,0.59-1.76
		c0.39-0.52,1.04-0.98,1.95-1.37s2.12-0.67,3.61-0.83c1.5-0.16,3.42-0.24,5.76-0.24c2.21,0,4.07,0.08,5.57,0.24
		c1.5,0.16,2.65,0.44,3.47,0.83s1.38,0.85,1.71,1.37c0.33,0.52,0.49,1.11,0.49,1.76V282.33z M472.85,281.75
		c0.78,2.34,1.27,4.2,1.46,5.57s-0.07,2.39-0.78,3.08c-0.72,0.68-1.99,1.11-3.81,1.27c-1.82,0.16-4.33,0.24-7.52,0.24
		c-3.32,0-5.91-0.05-7.76-0.15s-3.27-0.29-4.25-0.59s-1.66-0.7-2.05-1.22c-0.39-0.52-0.72-1.2-0.98-2.05l-8.5-25.39h-47.46
		l-8.01,24.71c-0.26,0.91-0.6,1.68-1.03,2.29c-0.42,0.62-1.11,1.11-2.05,1.46c-0.94,0.36-2.28,0.6-4,0.73
		c-1.73,0.13-3.99,0.2-6.79,0.2c-3,0-5.34-0.1-7.03-0.29c-1.69-0.2-2.87-0.67-3.52-1.42c-0.65-0.75-0.88-1.81-0.68-3.17
		s0.68-3.19,1.46-5.47l38.96-112.11c0.39-1.11,0.85-2,1.37-2.69c0.52-0.68,1.35-1.2,2.49-1.56c1.14-0.36,2.72-0.59,4.74-0.68
		c2.02-0.1,4.69-0.15,8.01-0.15c3.84,0,6.9,0.05,9.18,0.15c2.28,0.1,4.05,0.33,5.32,0.68c1.27,0.36,2.18,0.9,2.73,1.61
		c0.55,0.72,1.03,1.69,1.42,2.93L472.85,281.75z M414.84,189.07h-0.1l-17.87,53.71h35.84L414.84,189.07z M565.43,253.43
		c0,6.64-1.24,12.47-3.71,17.48c-2.47,5.01-5.83,9.2-10.06,12.55c-4.23,3.35-9.18,5.88-14.84,7.57s-11.72,2.54-18.16,2.54
		c-4.36,0-8.42-0.36-12.16-1.07c-3.74-0.72-7.05-1.58-9.91-2.59c-2.87-1.01-5.26-2.07-7.18-3.17c-1.92-1.11-3.3-2.08-4.15-2.93
		c-0.85-0.85-1.45-2.07-1.81-3.66c-0.36-1.59-0.54-3.89-0.54-6.88c0-2.02,0.06-3.71,0.2-5.08c0.13-1.37,0.34-2.47,0.63-3.32
		c0.29-0.85,0.68-1.45,1.17-1.81c0.49-0.36,1.06-0.54,1.71-0.54c0.91,0,2.2,0.54,3.86,1.61s3.79,2.26,6.4,3.56
		c2.6,1.3,5.71,2.49,9.33,3.56s7.8,1.61,12.55,1.61c3.12,0,5.92-0.37,8.4-1.12c2.47-0.75,4.57-1.81,6.3-3.17
		c1.72-1.37,3.04-3.06,3.96-5.08c0.91-2.02,1.37-4.26,1.37-6.74c0-2.86-0.78-5.32-2.34-7.37s-3.6-3.87-6.1-5.47
		c-2.51-1.59-5.36-3.09-8.54-4.49c-3.19-1.4-6.48-2.88-9.86-4.44c-3.39-1.56-6.67-3.34-9.86-5.32c-3.19-1.99-6.04-4.36-8.54-7.13
		c-2.51-2.77-4.54-6.04-6.1-9.81c-1.56-3.77-2.34-8.3-2.34-13.57c0-6.05,1.12-11.38,3.37-15.97s5.27-8.4,9.08-11.43
		s8.3-5.29,13.48-6.79c5.18-1.5,10.66-2.25,16.46-2.25c2.99,0,5.99,0.23,8.98,0.68c2.99,0.46,5.79,1.07,8.4,1.86
		c2.6,0.78,4.92,1.66,6.93,2.64c2.02,0.98,3.35,1.79,4,2.44c0.65,0.65,1.09,1.21,1.32,1.66c0.23,0.46,0.42,1.06,0.59,1.81
		c0.16,0.75,0.28,1.69,0.34,2.83c0.06,1.14,0.1,2.56,0.1,4.25c0,1.89-0.05,3.48-0.15,4.79c-0.1,1.3-0.26,2.38-0.49,3.22
		c-0.23,0.85-0.55,1.46-0.98,1.86c-0.42,0.39-0.99,0.59-1.71,0.59c-0.72,0-1.86-0.45-3.42-1.37c-1.56-0.91-3.48-1.9-5.76-2.98
		c-2.28-1.07-4.92-2.05-7.91-2.93c-3-0.88-6.28-1.32-9.86-1.32c-2.8,0-5.24,0.34-7.32,1.03c-2.08,0.68-3.83,1.63-5.22,2.83
		c-1.4,1.21-2.44,2.65-3.12,4.35c-0.68,1.69-1.03,3.48-1.03,5.37c0,2.8,0.76,5.22,2.29,7.28c1.53,2.05,3.58,3.87,6.15,5.47
		c2.57,1.6,5.48,3.09,8.74,4.49c3.25,1.4,6.58,2.88,9.96,4.44c3.38,1.56,6.71,3.34,9.96,5.32c3.25,1.99,6.15,4.36,8.69,7.13
		c2.54,2.77,4.59,6.02,6.15,9.77C564.65,243.94,565.43,248.35,565.43,253.43z"/>
</g>
<g id="Links">
	<g>
		<defs>
			<path id="SVGID_1_" d="M414.79,220.6l4.05,12.18h-8.11L414.79,220.6z M647.5,47.41v280.19c0,22.04-17.87,39.91-39.91,39.91H47.41
				c-22.04,0-39.91-17.87-39.91-39.91V47.41C7.5,25.37,25.37,7.5,47.41,7.5h560.19C629.63,7.5,647.5,25.37,647.5,47.41z
				 M575.43,253.43c0-6.38-1.05-12.13-3.12-17.08c-2-4.8-4.7-9.06-8.01-12.68c-3.16-3.44-6.81-6.44-10.85-8.91
				c-3.57-2.18-7.26-4.15-10.98-5.86c-3.41-1.57-6.84-3.1-10.2-4.55c-2.79-1.2-5.28-2.48-7.42-3.8c-1.49-0.92-2.64-1.92-3.41-2.95
				c-0.11-0.15-0.31-0.42-0.31-1.29c0-0.61,0.09-1.12,0.3-1.63c0.07-0.18,0.16-0.32,0.38-0.51c0.27-0.23,0.8-0.58,1.82-0.91
				c0.73-0.24,2.06-0.53,4.21-0.53c2.61,0,4.98,0.31,7.05,0.91c2.49,0.73,4.66,1.53,6.46,2.38c2,0.94,3.68,1.81,4.98,2.57
				c3.23,1.89,5.84,2.73,8.46,2.73c3.21,0,6.22-1.15,8.49-3.24c1.83-1.69,3.12-3.91,3.85-6.6c0.4-1.47,0.66-3.13,0.8-5.07
				c0.12-1.57,0.17-3.38,0.17-5.53c0-1.86-0.04-3.48-0.11-4.82c-0.1-1.67-0.28-3.1-0.55-4.39c-0.34-1.58-0.8-2.93-1.42-4.17
				c-0.72-1.43-1.76-2.81-3.19-4.25c-1.5-1.5-3.57-2.84-6.71-4.36c-2.49-1.2-5.32-2.28-8.42-3.21c-3.04-0.91-6.32-1.64-9.77-2.16
				c-3.48-0.53-7.01-0.8-10.49-0.8c-6.71,0-13.18,0.89-19.24,2.64c-6.41,1.86-12.1,4.74-16.92,8.56
				c-4.96,3.95-8.95,8.94-11.84,14.86c-2.91,5.95-4.39,12.8-4.39,20.36c0,6.57,1.04,12.42,3.1,17.4c2,4.82,4.67,9.1,7.93,12.7
				c3.12,3.44,6.71,6.44,10.67,8.91c3.52,2.19,7.21,4.18,10.96,5.91c3.43,1.59,6.81,3.11,10.03,4.52c2.71,1.19,5.14,2.46,7.19,3.77
				c1.5,0.96,2.68,2,3.52,3.1c0.09,0.12,0.3,0.39,0.3,1.31c0,1.05-0.16,1.91-0.48,2.62c-0.25,0.56-0.58,0.98-1.05,1.36
				c-0.73,0.58-1.73,1.06-2.99,1.44c-1.52,0.46-3.37,0.69-5.5,0.69c-3.76,0-7.03-0.4-9.7-1.2c-3.04-0.91-5.64-1.89-7.71-2.92
				c-2.26-1.13-4.09-2.14-5.43-3.02c-3.39-2.19-6.34-3.22-9.29-3.22c-2.77,0-5.41,0.85-7.63,2.48c-1.42,1.04-2.59,2.37-3.5,3.96
				l-32.22-92.38c-0.75-2.31-1.72-4.23-2.99-5.88c-1.89-2.44-4.56-4.17-7.94-5.12c-2.04-0.57-4.53-0.92-7.6-1.05
				c-2.44-0.1-5.59-0.16-9.61-0.16c-3.51,0-6.29,0.05-8.49,0.16c-2.9,0.14-5.27,0.51-7.25,1.13c-3.15,0.99-5.65,2.69-7.44,5.04
				c-1.17,1.53-2.1,3.3-2.86,5.47l-37.29,107.3v-104.7c0-2.51-0.69-4.96-2.01-7.07c-1.35-2.15-3.32-3.85-5.86-5.07
				c-1.86-0.89-4.05-1.47-6.72-1.76c-1.88-0.2-4.05-0.3-6.64-0.3c-2.72,0-4.95,0.1-6.84,0.3c-2.51,0.27-4.62,0.79-6.47,1.58
				c-2.54,1.09-4.56,2.62-6.02,4.57c-1.69,2.26-2.58,4.94-2.58,7.75v44.12l-20.93-39.29c-1.43-2.92-2.82-5.36-4.25-7.47
				c-1.81-2.66-3.87-4.85-6.13-6.5c-2.37-1.74-5.07-2.99-8.02-3.73c-2.51-0.63-5.35-0.93-8.67-0.93h-13.77
				c-4.97,0-9.49,1.62-13.09,4.69c-2.82,2.41-6.19,6.88-6.19,14.49V287.7c0,2.52,0.7,4.97,2,7.05c1.44,2.31,3.58,4.07,6.34,5.24
				c1.7,0.72,3.7,1.22,6.13,1.54c1.94,0.25,4.22,0.38,6.96,0.38c2.8,0,5.11-0.12,7.06-0.38c2.38-0.31,4.35-0.8,6.03-1.48
				c2.72-1.1,4.85-2.76,6.34-4.93c1.5-2.18,2.29-4.75,2.29-7.41v-50.11l22.62,42.49c1.77,3.54,3.35,6.4,4.84,8.73
				c1.85,2.92,3.81,5.24,5.97,7.1c2.53,2.18,5.38,3.71,8.47,4.55c2.55,0.7,5.35,1.04,8.56,1.04h10.94c2.19,0,4.38-0.32,6.5-0.95
				c2.62-0.77,4.95-2.06,6.93-3.82c1.3-1.15,2.4-2.5,3.33-4c0.54,1.47,1.32,2.83,2.35,4.01c2.34,2.69,5.67,4.3,9.92,4.79
				c2.09,0.24,4.77,0.36,8.18,0.36c3.07,0,5.54-0.07,7.55-0.22c2.71-0.21,4.92-0.65,6.78-1.35c2.85-1.08,5.19-2.87,6.77-5.17
				c0.99-1.45,1.78-3.13,2.33-5l5.72-17.65h32.99l6.18,18.47c0.6,1.89,1.43,3.57,2.49,4.97c1.7,2.27,4.12,3.89,7.18,4.81
				c1.78,0.54,3.88,0.85,6.6,0.99c2.05,0.11,4.76,0.16,8.29,0.16c3.5,0,6.25-0.09,8.41-0.28c4.18-0.37,7.39-1.68,9.82-4
				c0.73-0.7,1.64-1.75,2.4-3.17c0.49,0.31,1.01,0.62,1.56,0.94c2.47,1.43,5.37,2.72,8.85,3.94c3.31,1.17,7.13,2.17,11.36,2.98
				c4.34,0.83,9.07,1.25,14.04,1.25c7.38,0,14.46-1,21.03-2.96c6.86-2.05,12.98-5.18,18.19-9.31c5.38-4.26,9.69-9.63,12.82-15.96
				C573.83,268.95,575.43,261.58,575.43,253.43z"/>
		</defs>
		<clipPath id="SVGID_2_">
			<use xlink:href="#SVGID_1_"  style="overflow:visible;"/>
		</clipPath>
		<g id="Paths" class="st5">
			<path class="st6" d="M202.08,367.5c0.78-81.47-23.3-294.76-74.56-360"/>
			<path class="st6" d="M7.5,87.06c142.55,0,505.06,3.41,642.89,86.96"/>
			<path class="st6" d="M184.22,7.5c141.35,30.64,264.83,131.74,288.91,360"/>
			<path class="st6" d="M372.28,7.5c0,75.32-11.13,267.24-364.78,267.24"/>
			<path class="st6" d="M7.5,115.15c8.45,72.23,56.61,252.35,487.23,252.35"/>
		</g>
	</g>
	<path class="st0" d="M607.59,367.5H47.41c-22.04,0-39.91-17.87-39.91-39.91V47.41C7.5,25.37,25.37,7.5,47.41,7.5h560.19
		c22.04,0,39.91,17.87,39.91,39.91v280.19C647.5,349.63,629.63,367.5,607.59,367.5z"/>
</g>
</svg>
