<?xml version="1.0" encoding="UTF-8" standalone="no"?>
<!-- Generator: Adobe Illustrator 16.0.0, SVG Export Plug-In . SVG Version: 6.00 Build 0)  -->

<svg
   version="1.1"
   id="Layer_1"
   x="0px"
   y="0px"
   width="500.114px"
   height="250.057px"
   viewBox="0 0 500.114 250.057"
   enable-background="new 0 0 500.114 250.057"
   xml:space="preserve"
   sodipodi:docname="NAS Logo_SVG_DS.svg"
   inkscape:version="1.1 (c68e22c387, 2021-05-23)"
   xmlns:inkscape="http://www.inkscape.org/namespaces/inkscape"
   xmlns:sodipodi="http://sodipodi.sourceforge.net/DTD/sodipodi-0.dtd"
   xmlns="http://www.w3.org/2000/svg"
   xmlns:svg="http://www.w3.org/2000/svg"><defs
   id="defs40"><filter
     style="color-interpolation-filters:sRGB;"
     inkscape:label="Drop Shadow"
     id="filter1250"
     x="-0.081342145"
     y="-0.20379223"
     width="1.1626843"
     height="1.4075845"><feFlood
       flood-opacity="0.74902"
       flood-color="rgb(0,0,0)"
       result="flood"
       id="feFlood1240" /><feComposite
       in="flood"
       in2="SourceGraphic"
       operator="in"
       result="composite1"
       id="feComposite1242" /><feGaussianBlur
       in="composite1"
       stdDeviation="10"
       result="blur"
       id="feGaussianBlur1244" /><feOffset
       dx="0"
       dy="0"
       result="offset"
       id="feOffset1246" /><feComposite
       in="SourceGraphic"
       in2="offset"
       operator="over"
       result="composite2"
       id="feComposite1248" /></filter></defs><sodipodi:namedview
   id="namedview38"
   pagecolor="#ffffff"
   bordercolor="#666666"
   borderopacity="1.0"
   inkscape:pageshadow="2"
   inkscape:pageopacity="0.0"
   inkscape:pagecheckerboard="0"
   showgrid="false"
   inkscape:zoom="2.1155176"
   inkscape:cx="249.82066"
   inkscape:cy="125.0285"
   inkscape:window-width="1920"
   inkscape:window-height="1017"
   inkscape:window-x="-8"
   inkscape:window-y="-8"
   inkscape:window-maximized="1"
   inkscape:current-layer="NAS" />
<g
   id="Shape_1_1_"
   enable-background="new    ">
	<path
   fill="none"
   stroke="#FFFFFF"
   stroke-width="8"
   stroke-miterlimit="10"
   d="M155.404,246.745   c8.132-54.544-6.51-187.631-37.573-243.623"
   id="path2" />
</g>
<g
   id="Shape_2_1_"
   enable-background="new    ">
	<path
   fill="none"
   stroke="#FFFFFF"
   stroke-width="8"
   stroke-miterlimit="10"
   d="M3.034,201.587   c170.108-8.826,266.113-46.859,276.173-198.882"
   id="path5" />
</g>
<g
   id="Shape_3_1_"
   enable-background="new    ">
	<path
   fill="none"
   stroke="#FFFFFF"
   stroke-width="8"
   stroke-miterlimit="10"
   d="M496.002,127.148   C456.92,65.927,302.774,27.265,2.73,29.119"
   id="path8" />
</g>
<g
   id="Shape_4_1_"
   enable-background="new    ">
	<path
   fill="none"
   stroke="#FFFFFF"
   stroke-width="8"
   stroke-miterlimit="10"
   d="M4.812,50.528   C36.263,164.687,137.151,224.894,320.657,245.62"
   id="path11" />
</g>
<g
   id="Shape_5_1_"
   enable-background="new    ">
	<path
   fill="none"
   stroke="#FFFFFF"
   stroke-width="8"
   stroke-miterlimit="10"
   d="M363.366,246.272   C358.36,181.271,327.885,49.865,187.34,4.678"
   id="path14" />
</g>
<g
   id="Rounded_Rectangle_1_1_"
   enable-background="new    ">
	<g
   id="g19">
		<path
   fill="#FFFFFF"
   d="M488.292,10c1.096,0,1.822,0.67,1.822,1.114v227.827c0,0.443-0.727,1.113-1.822,1.113H11.823    c-1.096,0-1.823-0.67-1.823-1.113V11.115C10,10.67,10.727,10,11.823,10H488.292 M488.292,0H11.823C5.293,0,0,4.976,0,11.115    v227.827c0,6.141,5.293,11.113,11.823,11.113h476.468c6.529,0,11.822-4.976,11.822-11.113V11.115    C500.114,4.976,494.821,0,488.292,0L488.292,0z"
   id="path17" />
	</g>
</g>
<g
   id="NAS">
	<g
   id="g32"
   style="filter:url(#filter1250)">
			<g
   id="g30">
				<path
   fill="#ffffff"
   d="m 264.23,194.942 c 0,1.351 -0.233,2.552 -0.703,3.604 -0.471,1.055 -1.101,1.934 -1.891,2.637 -0.791,0.703 -1.729,1.217 -2.813,1.537 -1.084,0.322 -2.184,0.484 -3.295,0.484 h -9.844 c -2.053,0 -3.824,-0.205 -5.318,-0.615 -1.494,-0.41 -2.871,-1.156 -4.131,-2.242 -1.26,-1.083 -2.475,-2.549 -3.646,-4.395 -1.174,-1.849 -2.492,-4.232 -3.955,-7.162 l -28.301,-53.174 c -1.641,-3.164 -3.311,-6.577 -5.01,-10.24 -1.7,-3.661 -3.223,-7.22 -4.57,-10.678 h -0.176 c 0.233,4.219 0.409,8.424 0.527,12.609 0.117,4.19 0.176,8.512 0.176,12.965 v 59.502 c 0,0.586 -0.162,1.113 -0.483,1.582 -0.323,0.472 -0.879,0.865 -1.67,1.188 -0.791,0.323 -1.861,0.572 -3.208,0.748 -1.349,0.176 -3.076,0.264 -5.186,0.264 -2.052,0 -3.75,-0.088 -5.098,-0.264 -1.349,-0.176 -2.403,-0.425 -3.164,-0.748 -0.762,-0.32 -1.29,-0.717 -1.582,-1.188 -0.294,-0.469 -0.439,-0.996 -0.439,-1.582 V 97.559 c 0,-2.753 0.805,-4.816 2.417,-6.196 1.611,-1.376 3.588,-2.063 5.933,-2.063 h 12.393 c 2.226,0 4.101,0.191 5.625,0.571 1.523,0.382 2.885,1.011 4.087,1.89 1.2,0.879 2.329,2.096 3.384,3.647 1.055,1.553 2.138,3.472 3.252,5.757 l 22.149,41.57 c 1.287,2.521 2.563,4.996 3.822,7.429 1.26,2.433 2.475,4.862 3.648,7.295 1.172,2.433 2.314,4.817 3.428,7.164 1.111,2.344 2.197,4.688 3.252,7.028 h 0.088 c -0.176,-4.102 -0.309,-8.379 -0.396,-12.832 -0.087,-4.45 -0.131,-8.698 -0.131,-12.741 V 92.726 c 0,-0.585 0.176,-1.109 0.527,-1.582 0.352,-0.468 0.936,-0.879 1.758,-1.229 0.82,-0.354 1.902,-0.603 3.252,-0.747 1.348,-0.146 3.076,-0.221 5.186,-0.221 1.99,0 3.66,0.072 5.013,0.221 1.348,0.146 2.387,0.396 3.116,0.747 0.732,0.351 1.244,0.762 1.539,1.229 0.293,0.473 0.439,0.997 0.439,1.582 z"
   id="path24" />
				<path
   fill="#ffffff"
   d="m 382.178,194.415 c 0.703,2.106 1.145,3.776 1.318,5.01 0.176,1.231 -0.059,2.152 -0.703,2.768 -0.645,0.616 -1.787,0.996 -3.428,1.146 -1.645,0.146 -3.896,0.221 -6.771,0.221 -2.984,0 -5.313,-0.045 -6.982,-0.133 -1.669,-0.088 -2.945,-0.264 -3.824,-0.527 -0.879,-0.263 -1.494,-0.629 -1.846,-1.098 -0.355,-0.469 -0.646,-1.084 -0.883,-1.846 l -7.645,-22.854 H 308.7 l -7.207,22.236 c -0.234,0.82 -0.541,1.509 -0.924,2.063 -0.382,0.562 -0.996,0.998 -1.846,1.318 -0.852,0.322 -2.053,0.541 -3.604,0.66 -1.555,0.116 -3.592,0.176 -6.107,0.176 -2.695,0 -4.805,-0.088 -6.328,-0.264 -1.523,-0.176 -2.579,-0.604 -3.164,-1.275 -0.586,-0.672 -0.791,-1.625 -0.615,-2.854 0.176,-1.23 0.615,-2.871 1.318,-4.922 l 35.07,-100.899 c 0.354,-0.996 0.762,-1.802 1.23,-2.417 0.467,-0.615 1.217,-1.083 2.236,-1.406 1.025,-0.321 2.447,-0.524 4.268,-0.615 1.813,-0.088 4.219,-0.132 7.207,-0.132 3.457,0 6.211,0.044 8.262,0.132 2.051,0.091 3.645,0.294 4.791,0.615 1.143,0.323 1.963,0.809 2.461,1.45 0.496,0.646 0.922,1.524 1.273,2.637 z m -52.207,-83.409 h -0.088 l -16.084,48.34 h 32.256 z"
   id="path26" />
				<path
   fill="#ffffff"
   d="m 465.5,168.927 c 0,5.977 -1.113,11.221 -3.34,15.732 -2.23,4.512 -5.244,8.273 -9.053,11.293 -3.814,3.02 -8.268,5.289 -13.359,6.813 -5.098,1.522 -10.547,2.285 -16.348,2.285 -3.932,0 -7.574,-0.323 -10.943,-0.967 -3.369,-0.646 -6.342,-1.42 -8.92,-2.33 -2.58,-0.907 -4.732,-1.859 -6.461,-2.855 -1.73,-0.996 -2.979,-1.875 -3.734,-2.637 -0.762,-0.762 -1.305,-1.859 -1.627,-3.297 -0.32,-1.435 -0.482,-3.5 -0.482,-6.195 0,-1.813 0.059,-3.34 0.176,-4.567 0.117,-1.23 0.309,-2.229 0.572,-2.988 0.262,-0.761 0.613,-1.304 1.055,-1.627 0.438,-0.32 0.951,-0.482 1.537,-0.482 0.82,0 1.979,0.482 3.473,1.449 1.494,0.967 3.412,2.037 5.756,3.209 2.344,1.172 5.146,2.24 8.396,3.207 3.252,0.967 7.018,1.451 11.295,1.451 2.813,0 5.33,-0.337 7.559,-1.012 2.229,-0.675 4.115,-1.625 5.668,-2.855 1.555,-1.229 2.738,-2.754 3.563,-4.57 0.818,-1.813 1.229,-3.838 1.229,-6.063 0,-2.578 -0.703,-4.791 -2.107,-6.637 -1.406,-1.849 -3.238,-3.484 -5.492,-4.925 -2.256,-1.435 -4.82,-2.778 -7.691,-4.043 -2.871,-1.259 -5.83,-2.592 -8.877,-3.998 -3.047,-1.403 -6.006,-3.002 -8.877,-4.791 -2.871,-1.783 -5.436,-3.924 -7.688,-6.416 -2.26,-2.486 -4.092,-5.434 -5.492,-8.83 -1.406,-3.397 -2.109,-7.473 -2.109,-12.219 0,-5.446 1.01,-10.236 3.031,-14.37 2.02,-4.131 4.746,-7.559 8.174,-10.28 3.428,-2.727 7.471,-4.763 12.129,-6.108 4.658,-1.345 9.594,-2.021 14.811,-2.021 2.693,0 5.391,0.203 8.086,0.612 2.693,0.411 5.215,0.968 7.559,1.67 2.344,0.703 4.424,1.494 6.24,2.373 1.814,0.879 3.018,1.612 3.604,2.197 0.586,0.586 0.98,1.085 1.189,1.494 0.205,0.411 0.381,0.953 0.525,1.626 0.146,0.674 0.248,1.521 0.311,2.549 0.057,1.026 0.088,2.3 0.088,3.823 0,1.7 -0.045,3.135 -0.133,4.307 -0.088,1.173 -0.234,2.143 -0.439,2.9 -0.205,0.762 -0.498,1.315 -0.879,1.67 -0.381,0.352 -0.893,0.527 -1.537,0.527 -0.644,0 -1.67,-0.409 -3.074,-1.23 -1.406,-0.82 -3.137,-1.714 -5.188,-2.681 -2.053,-0.97 -4.426,-1.849 -7.119,-2.64 -2.693,-0.791 -5.654,-1.187 -8.877,-1.187 -2.52,0 -4.717,0.308 -6.592,0.923 -1.877,0.615 -3.443,1.465 -4.703,2.549 -1.26,1.085 -2.197,2.391 -2.813,3.911 -0.615,1.524 -0.926,3.135 -0.926,4.834 0,2.521 0.689,4.702 2.066,6.548 1.375,1.848 3.221,3.487 5.537,4.921 2.313,1.438 4.936,2.784 7.865,4.043 2.93,1.265 5.918,2.597 8.965,4 3.047,1.406 6.035,3.003 8.965,4.789 2.93,1.789 5.537,3.93 7.822,6.416 2.283,2.492 4.131,5.421 5.537,8.789 1.392,3.372 2.097,7.34 2.097,11.911 z"
   id="path28" />
			</g>
		</g>
</g>
</svg>
