<?xml version="1.0" encoding="utf-8"?>
<!-- Generator: Adobe Illustrator 25.2.0, SVG Export Plug-In . SVG Version: 6.00 Build 0)  -->
<svg version="1.1" id="logo" xmlns="http://www.w3.org/2000/svg" xmlns:xlink="http://www.w3.org/1999/xlink" x="0px" y="0px"
	 viewBox="0 0 99.2 38.7" style="enable-background:new 0 0 99.2 38.7;" xml:space="preserve">
<style type="text/css">
	.st0{fill:#00A6D6;}
</style>
<g>
	<path d="M91.3,25v1.8h2.3v8.5c0,1.8,0,3.5,3.8,3.5c0.6,0,1.1-0.1,1.7-0.2v-1.9c-0.4,0.1-0.9,0.2-1.3,0.2c-0.9,0-1.6-0.4-1.6-1.4
		v-8.6h3.1V25h-3.1v-3.6l-2.5,0.8V25L91.3,25z"/>
	<path d="M86.8,38.3V26.7h3.1V25h-3.1v-2.1c0-1.5,0.7-1.8,2.2-1.8c0.4,0,0.9,0.1,1.3,0.1V19c-0.6-0.1-1.2-0.3-1.8-0.3
		c-2.4,0-4.2,1.2-4.2,3.7V25h-2.6v1.8h2.6v11.5H86.8z"/>
	<rect x="76.4" y="19.2" width="2.5" height="19.1"/>
	<path d="M63.9,30.4c0-2.1,1.3-3.9,3.4-3.9c2.4,0,3.4,1.7,3.4,3.9H63.9z M73.4,32.1v-1.2c0-3.7-2.1-6.3-5.9-6.3
		c-4.2,0-6.2,3.3-6.2,7.2c0,3.9,1.7,6.9,6,6.9c3.2,0,5.5-1.5,5.9-4.5h-2.6c-0.3,1.9-1.3,2.7-3.2,2.7c-2.6,0-3.4-2.3-3.4-4.7
		L73.4,32.1L73.4,32.1z"/>
	<path d="M43.3,38.3h6.6c8.2,0,9-6.9,9-9.6c0-2.6-0.9-9.6-9-9.6h-6.6V38.3z M45.9,21.4h3.9c4.4,0,6.3,3.3,6.3,7.3S54.3,36,49.8,36
		h-3.9V21.4z"/>
	<polygon points="5.9,38.3 11.2,38.3 11.2,22.9 17.2,22.9 17.2,19.2 0,19.2 0,22.9 5.9,22.9 	"/>
	<path d="M18.7,9.8c-1.3,0.4-2.6,0.1-2.6-1.6c0-2.6,6.2-4.9,7.1-7.1c0.2-0.6,0.2-1.1-0.1-1c-0.2,0,0,0.3-0.5,0.7
		c-2.6,2.6-6.9,2.6-10.2,4c-2.2,1-8.5,3.9-7,10.6c0.1,0.3,0.3,1.4,0.4,1.4C6,16.7,6,16.1,6,15.4c-0.1-4,4.6-5.1,6.2-7.6
		c0.2-0.3,0.5-0.7,0.6-0.5c0,0.1,0,0.2-0.1,0.5c-0.5,2.1-2.7,3.5-2.1,5c0.8,2,3.2,0.5,3.9-0.8c0.2-0.4,0.3-0.6,0.4-0.5
		c0.1,0,0.1,0.4,0,0.8c-0.4,2.3-0.9,3.6-2.6,4.9c-0.5,0.4-1.4,0.5-1.3,0.8c0,0.1,0.4,0.1,0.7,0c4.5-0.3,8.2-5.5,9.2-9
		c0.1-0.2,0.1-0.5,0-0.6c-0.1-0.1-0.3,0.1-0.5,0.3C20,9.2,19.3,9.6,18.7,9.8z"/>
</g>
<path class="st0" d="M28.8,35c2.5,0,3.8-1.7,3.8-4V19.2H38v12.1c-0.1,5.3-4.3,7.4-9.2,7.4s-9.1-2.1-9.2-7.4V19.2H25V31
	C25,33.3,26.3,35,28.8,35z"/>
</svg>
