<?xml version="1.0" encoding="utf-8"?>
<!-- Svg Vector Icons : http://www.onlinewebfonts.com/icon -->
<!DOCTYPE svg PUBLIC "-//W3C//DTD SVG 1.1//EN" "http://www.w3.org/Graphics/SVG/1.1/DTD/svg11.dtd">
<svg fill="white" version="1.1" xmlns="http://www.w3.org/2000/svg" xmlns:xlink="http://www.w3.org/1999/xlink" x="0px" y="0px" viewBox="0 0 1000 1000" enable-background="new 0 0 1000 1000" xml:space="preserve">
<g><g><path d="M965.4,536.7c-27.3-20.7-66.2-15.5-87.1,11.9c-2,2.8-3.6,5.7-5.2,8.5l-152.5-25.8c1.4-10.6,2.4-21.2,2.4-32.2c0-44.3-12.3-85.7-33.5-121.3l97.2-62.9c6.2,4.2,13.8,6.5,21.8,5.7c18.5-1.7,32.1-17.9,30.5-36.6c-1.7-18.5-18-32.1-36.5-30.4c-18.5,1.6-32.1,18.1-30.4,36.6c0.1,1.9,0.6,3.5,1,5.3l-96.6,62.4c-19.3-26-43.5-48-71.6-64.4l69.4-109.6c7.4,1.2,15.2,0.1,22.2-4c16-9.3,21.6-29.8,12.2-45.9c-9.3-16.1-29.8-21.7-45.9-12.4c-16,9.3-21.6,29.8-12.3,46c0.9,1.6,1.9,3,3.1,4.4l-69.9,110.4c-23.6-10.8-49.2-18.1-76.2-20.6l14.2-83.8c5.4-1.3,10.5-4,14.1-8.7c8.2-10.9,6.2-26.4-4.7-34.6c-10.9-8.3-26.4-6.2-34.6,4.6c-8.2,10.8-6.1,26.4,4.7,34.6c1,0.7,2.3,1,3.4,1.6l-14.5,85.4c-1.8-0.1-3.6-0.3-5.4-0.3c-31,0-60.4,6-87.5,16.8l-66.9-122.9c6.5-8.2,10.5-18.5,10.3-29.8c-0.4-26.1-21.8-47-48-46.5c-26,0.4-46.8,21.8-46.4,47.9c0.4,26,21.8,46.8,47.9,46.4c2.6-0.1,5.1-0.5,7.6-0.9L367,291.8c-32.7,18.5-60.6,44.5-81.3,75.7L188,290.9c1.9-7.2,1.6-15.1-1.6-22.4c-7.6-16.9-27.5-24.5-44.4-16.9c-17,7.6-24.5,27.5-16.9,44.5c7.7,16.9,27.6,24.4,44.5,16.8c1.6-0.8,3.1-1.8,4.6-2.8l99.3,78c-14.7,28-23.9,59.3-26.5,92.7l-146.5-0.3c-4.1-9.6-11.3-18.1-21.2-23.3c-23.1-12.2-51.7-3.4-63.8,19.7c-12.1,23.1-3.3,51.6,19.7,63.7C58.2,553,86.8,544.1,99,521c1.2-2.2,2-4.6,2.8-7l145,0.4c1.2,18.9,4.4,37.3,9.7,54.9l-93.7,36.1c-5.2-5.4-12.2-9.1-20.2-10c-18.4-2.1-35.1,11.1-37.2,29.5c-2.1,18.4,11.1,35.3,29.6,37.3c18.4,2.1,35.1-11.2,37.1-29.6c0.2-1.8,0.1-3.5,0.1-5.4l92.3-35.6c18.3,43.4,49.1,80.3,87.9,106l-45.3,46.7c-7-2.7-14.9-3.2-22.5-0.7c-17.7,5.9-27.2,24.9-21.4,42.4c5.8,17.7,24.8,27.3,42.4,21.6c17.7-5.9,27.2-24.9,21.5-42.6c-0.6-1.7-1.3-3.3-2.2-5l48.5-50c23.1,12.2,48.4,20.6,75.2,24.5l-12.9,121c-7.3,1.7-14.2,5.7-19.1,12c-11.4,14.7-8.7,35.7,6,47.2c14.7,11.4,35.8,8.7,47.2-6c11.3-14.7,8.6-35.8-6.1-47.2c-1.4-1-3-1.9-4.5-2.8l13-121.8c4.1,0.3,8.1,0.6,12.2,0.6c31,0,60.5-6.1,87.7-16.8l24.1,107.2c-6,4.4-10.8,10.6-12.9,18.4c-4.8,18,5.8,36.4,23.8,41.2c17.9,4.7,36.4-5.8,41.2-23.8c4.8-18-5.9-36.4-23.8-41.2c-1.8-0.5-3.5-0.7-5.3-0.9l-24.9-110.9c17.3-9,33.3-20.1,47.8-33l33,46.5c-3,4.7-4.5,10.1-3.7,16.1c1.8,13.4,14.3,22.9,27.8,21.2c13.6-1.9,23-14.3,21.2-27.8c-1.9-13.6-14.3-23-27.9-21.2c-1.3,0.2-2.2,0.8-3.4,1.2l-34-48c25.1-25.6,44.3-56.8,55.8-91.7l156.9,26.7c3.2,13.5,10.7,26,22.5,35c27.3,20.7,66.3,15.6,87.1-11.8C998.1,596.5,992.8,557.5,965.4,536.7z M410.4,488c-19.6,0-35.6-16-35.6-35.7c0-19.7,16-35.6,35.6-35.6c19.7,0,35.7,15.9,35.7,35.6C446.1,472,430.2,488,410.4,488z M502.4,565.5c-14.4,0-26.2-11.7-26.2-26.1c0-14.5,11.7-26.2,26.2-26.2c14.5,0,26.2,11.6,26.2,26.2C528.5,553.9,516.8,565.5,502.4,565.5z M599.5,454.6c-21.3,0-38.6-17.3-38.6-38.5c0-21.4,17.3-38.7,38.6-38.7s38.6,17.3,38.6,38.7C638.2,437.4,620.9,454.6,599.5,454.6z"/></g><g></g><g></g><g></g><g></g><g></g><g></g><g></g><g></g><g></g><g></g><g></g><g></g><g></g><g></g><g></g></g>
</svg>